<svg width="138" height="33" viewBox="0 0 138 33" fill="none" xmlns="http://www.w3.org/2000/svg">
<g filter="url(#filter0_b_115_1816)">
<rect width="138" height="33" rx="4" fill="#EDF0F7" fill-opacity="0.8"/>
<path d="M18 24.8334C22.6024 24.8334 26.3334 21.1024 26.3334 16.5C26.3334 11.8976 22.6024 8.16669 18 8.16669C13.3976 8.16669 9.66669 11.8976 9.66669 16.5C9.66669 21.1024 13.3976 24.8334 18 24.8334Z" stroke="black" stroke-width="1.5" stroke-linecap="round" stroke-linejoin="round"/>
<path d="M14.6667 18.1667C14.6667 18.1667 15.9167 19.8334 18 19.8334C20.0834 19.8334 21.3334 18.1667 21.3334 18.1667" stroke="black" stroke-width="1.5" stroke-linecap="round" stroke-linejoin="round"/>
<path d="M15.5 14H15.5067" stroke="black" stroke-width="1.5" stroke-linecap="round" stroke-linejoin="round"/>
<path d="M20.5 14H20.5067" stroke="black" stroke-width="1.5" stroke-linecap="round" stroke-linejoin="round"/>
<path d="M37.233 11.8182H38.7045L42.1648 20.2699H42.2841L45.7443 11.8182H47.2159V22H46.0625V14.2642H45.9631L42.7812 22H41.6676L38.4858 14.2642H38.3864V22H37.233V11.8182ZM52.7306 22.1591C51.9949 22.1591 51.3601 21.9967 50.8265 21.6719C50.2962 21.3438 49.8869 20.8864 49.5985 20.2997C49.3135 19.7098 49.171 19.0237 49.171 18.2415C49.171 17.4593 49.3135 16.7699 49.5985 16.1733C49.8869 15.5734 50.2879 15.1061 50.8017 14.7713C51.3187 14.4332 51.9219 14.2642 52.6113 14.2642C53.0091 14.2642 53.4018 14.3305 53.7896 14.4631C54.1774 14.5956 54.5304 14.8111 54.8485 15.1094C55.1667 15.4044 55.4203 15.7955 55.6092 16.2827C55.7981 16.7699 55.8926 17.3698 55.8926 18.0824V18.5795H50.0062V17.5653H54.6994C54.6994 17.1345 54.6132 16.75 54.4409 16.4119C54.2718 16.0739 54.0299 15.8071 53.715 15.6115C53.4035 15.416 53.0356 15.3182 52.6113 15.3182C52.144 15.3182 51.7396 15.4342 51.3983 15.6662C51.0602 15.8949 50.8 16.1932 50.6177 16.5611C50.4354 16.929 50.3443 17.3234 50.3443 17.7443V18.4205C50.3443 18.9972 50.4437 19.486 50.6426 19.8871C50.8448 20.2848 51.1248 20.5881 51.4828 20.7969C51.8407 21.0024 52.2567 21.1051 52.7306 21.1051C53.0389 21.1051 53.3173 21.062 53.5659 20.9759C53.8178 20.8864 54.0349 20.7538 54.2172 20.5781C54.3994 20.3991 54.5403 20.1771 54.6397 19.9119L55.7733 20.2301C55.6539 20.6146 55.4534 20.9527 55.1717 21.2443C54.89 21.5327 54.542 21.758 54.1277 21.9205C53.7134 22.0795 53.2477 22.1591 52.7306 22.1591ZM58.8507 17.4062V22H57.6774V14.3636H58.8109V15.5568H58.9103C59.0893 15.169 59.3611 14.8575 59.7257 14.6222C60.0903 14.3835 60.5609 14.2642 61.1376 14.2642C61.6547 14.2642 62.1071 14.3703 62.4949 14.5824C62.8826 14.7912 63.1842 15.1094 63.3997 15.5369C63.6151 15.9612 63.7228 16.4981 63.7228 17.1477V22H62.5495V17.2273C62.5495 16.6274 62.3938 16.16 62.0822 15.8253C61.7707 15.4872 61.3431 15.3182 60.7995 15.3182C60.425 15.3182 60.0903 15.3994 59.7953 15.5618C59.5036 15.7242 59.2733 15.9612 59.1042 16.2727C58.9352 16.5843 58.8507 16.9621 58.8507 17.4062ZM69.1879 14.3636V15.358H65.2305V14.3636H69.1879ZM66.3839 12.5341H67.5572V19.8125C67.5572 20.1439 67.6052 20.3925 67.7013 20.5582C67.8008 20.7206 67.9267 20.83 68.0792 20.8864C68.235 20.9394 68.399 20.9659 68.5714 20.9659C68.7006 20.9659 68.8067 20.9593 68.8896 20.946C68.9724 20.9295 69.0387 20.9162 69.0884 20.9062L69.3271 21.9602C69.2475 21.9901 69.1365 22.0199 68.994 22.0497C68.8514 22.0829 68.6708 22.0994 68.4521 22.0994C68.1206 22.0994 67.7958 22.0282 67.4776 21.8857C67.1628 21.7431 66.9009 21.526 66.6921 21.2344C66.4866 20.9427 66.3839 20.5748 66.3839 20.1307V12.5341ZM73.1999 22.179C72.716 22.179 72.2769 22.0878 71.8825 21.9055C71.488 21.7199 71.1748 21.4531 70.9428 21.1051C70.7108 20.7538 70.5948 20.3295 70.5948 19.8324C70.5948 19.3949 70.681 19.0402 70.8533 18.7685C71.0257 18.4934 71.256 18.2779 71.5444 18.1222C71.8327 17.9664 72.1509 17.8504 72.4989 17.7741C72.8503 17.6946 73.2032 17.6316 73.5579 17.5852C74.0219 17.5256 74.3981 17.4808 74.6864 17.451C74.9781 17.4179 75.1902 17.3632 75.3228 17.2869C75.4587 17.2107 75.5266 17.0781 75.5266 16.8892V16.8494C75.5266 16.3589 75.3924 15.9777 75.1239 15.706C74.8588 15.4342 74.4561 15.2983 73.9158 15.2983C73.3557 15.2983 72.9165 15.4209 72.5984 15.6662C72.2802 15.9115 72.0565 16.1733 71.9272 16.4517L70.8136 16.054C71.0124 15.59 71.2776 15.2287 71.609 14.9702C71.9438 14.7083 72.3084 14.526 72.7028 14.4233C73.1005 14.3172 73.4916 14.2642 73.8761 14.2642C74.1213 14.2642 74.4031 14.294 74.7212 14.3537C75.0427 14.41 75.3526 14.5277 75.6509 14.7067C75.9525 14.8857 76.2028 15.1558 76.4016 15.517C76.6005 15.8783 76.6999 16.3622 76.6999 16.9688V22H75.5266V20.9659H75.467C75.3874 21.1316 75.2549 21.3089 75.0692 21.4979C74.8836 21.6868 74.6367 21.8475 74.3285 21.9801C74.0202 22.1127 73.6441 22.179 73.1999 22.179ZM73.3789 21.125C73.8429 21.125 74.234 21.0339 74.5522 20.8516C74.8737 20.6693 75.1156 20.4339 75.2781 20.1456C75.4438 19.8572 75.5266 19.554 75.5266 19.2358V18.1619C75.4769 18.2216 75.3675 18.2763 75.1985 18.326C75.0328 18.3724 74.8406 18.4138 74.6218 18.4503C74.4064 18.4834 74.1959 18.5133 73.9904 18.5398C73.7882 18.563 73.6242 18.5829 73.4982 18.5994C73.1933 18.6392 72.9083 18.7038 72.6431 18.7933C72.3813 18.8795 72.1692 19.0104 72.0067 19.1861C71.8477 19.3584 71.7681 19.5937 71.7681 19.892C71.7681 20.2997 71.9189 20.608 72.2205 20.8168C72.5254 21.0223 72.9116 21.125 73.3789 21.125ZM80.0147 11.8182V22H78.8414V11.8182H80.0147ZM89.5018 14.3636V15.358H85.3853V14.3636H89.5018ZM86.6183 22V13.3097C86.6183 12.8722 86.721 12.5076 86.9265 12.2159C87.132 11.9242 87.3988 11.7055 87.7269 11.5597C88.055 11.4138 88.4014 11.3409 88.766 11.3409C89.0543 11.3409 89.2897 11.3641 89.4719 11.4105C89.6542 11.4569 89.7901 11.5 89.8796 11.5398L89.5415 12.554C89.4819 12.5341 89.399 12.5092 89.293 12.4794C89.1902 12.4496 89.0543 12.4347 88.8853 12.4347C88.4975 12.4347 88.2174 12.5324 88.0451 12.728C87.8761 12.9235 87.7915 13.2102 87.7915 13.5881V22H86.6183ZM91.1461 22V14.3636H92.3194V22H91.1461ZM91.7427 13.0909C91.514 13.0909 91.3168 13.013 91.1511 12.8572C90.9887 12.7015 90.9075 12.5142 90.9075 12.2955C90.9075 12.0767 90.9887 11.8894 91.1511 11.7337C91.3168 11.5779 91.514 11.5 91.7427 11.5C91.9714 11.5 92.167 11.5779 92.3294 11.7337C92.4951 11.8894 92.5779 12.0767 92.5779 12.2955C92.5779 12.5142 92.4951 12.7015 92.3294 12.8572C92.167 13.013 91.9714 13.0909 91.7427 13.0909ZM97.7894 14.3636V15.358H93.832V14.3636H97.7894ZM94.9854 12.5341H96.1587V19.8125C96.1587 20.1439 96.2068 20.3925 96.3029 20.5582C96.4023 20.7206 96.5283 20.83 96.6808 20.8864C96.8365 20.9394 97.0006 20.9659 97.1729 20.9659C97.3022 20.9659 97.4083 20.9593 97.4911 20.946C97.574 20.9295 97.6403 20.9162 97.69 20.9062L97.9286 21.9602C97.8491 21.9901 97.738 22.0199 97.5955 22.0497C97.453 22.0829 97.2724 22.0994 97.0536 22.0994C96.7222 22.0994 96.3974 22.0282 96.0792 21.8857C95.7643 21.7431 95.5025 21.526 95.2937 21.2344C95.0882 20.9427 94.9854 20.5748 94.9854 20.1307V12.5341ZM100.728 17.4062V22H99.5543V14.3636H100.688V15.5568H100.787C100.966 15.169 101.238 14.8575 101.603 14.6222C101.967 14.3835 102.438 14.2642 103.015 14.2642C103.532 14.2642 103.984 14.3703 104.372 14.5824C104.76 14.7912 105.061 15.1094 105.277 15.5369C105.492 15.9612 105.6 16.4981 105.6 17.1477V22H104.426V17.2273C104.426 16.6274 104.271 16.16 103.959 15.8253C103.648 15.4872 103.22 15.3182 102.676 15.3182C102.302 15.3182 101.967 15.3994 101.672 15.5618C101.381 15.7242 101.15 15.9612 100.981 16.2727C100.812 16.5843 100.728 16.9621 100.728 17.4062ZM110.945 22.1591C110.21 22.1591 109.575 21.9967 109.041 21.6719C108.511 21.3438 108.102 20.8864 107.813 20.2997C107.528 19.7098 107.386 19.0237 107.386 18.2415C107.386 17.4593 107.528 16.7699 107.813 16.1733C108.102 15.5734 108.503 15.1061 109.017 14.7713C109.534 14.4332 110.137 14.2642 110.826 14.2642C111.224 14.2642 111.617 14.3305 112.004 14.4631C112.392 14.5956 112.745 14.8111 113.063 15.1094C113.382 15.4044 113.635 15.7955 113.824 16.2827C114.013 16.7699 114.107 17.3698 114.107 18.0824V18.5795H108.221V17.5653H112.914C112.914 17.1345 112.828 16.75 112.656 16.4119C112.487 16.0739 112.245 15.8071 111.93 15.6115C111.618 15.416 111.25 15.3182 110.826 15.3182C110.359 15.3182 109.954 15.4342 109.613 15.6662C109.275 15.8949 109.015 16.1932 108.833 16.5611C108.65 16.929 108.559 17.3234 108.559 17.7443V18.4205C108.559 18.9972 108.659 19.486 108.857 19.8871C109.06 20.2848 109.34 20.5881 109.698 20.7969C110.056 21.0024 110.472 21.1051 110.945 21.1051C111.254 21.1051 111.532 21.062 111.781 20.9759C112.033 20.8864 112.25 20.7538 112.432 20.5781C112.614 20.3991 112.755 20.1771 112.855 19.9119L113.988 20.2301C113.869 20.6146 113.668 20.9527 113.387 21.2443C113.105 21.5327 112.757 21.758 112.343 21.9205C111.928 22.0795 111.463 22.1591 110.945 22.1591ZM121.301 16.0739L120.247 16.3722C120.181 16.1965 120.083 16.0258 119.954 15.8601C119.828 15.6911 119.656 15.5518 119.437 15.4425C119.218 15.3331 118.938 15.2784 118.597 15.2784C118.129 15.2784 117.74 15.3861 117.428 15.6016C117.12 15.8137 116.966 16.0838 116.966 16.4119C116.966 16.7036 117.072 16.9339 117.284 17.103C117.496 17.272 117.828 17.4129 118.279 17.5256L119.412 17.804C120.095 17.9697 120.604 18.2232 120.938 18.5646C121.273 18.9027 121.441 19.3385 121.441 19.8722C121.441 20.3097 121.315 20.7008 121.063 21.0455C120.814 21.3902 120.466 21.6619 120.019 21.8608C119.571 22.0597 119.051 22.1591 118.458 22.1591C117.679 22.1591 117.034 21.9901 116.524 21.652C116.013 21.3139 115.69 20.8201 115.554 20.1705L116.668 19.892C116.774 20.303 116.974 20.6113 117.269 20.8168C117.568 21.0223 117.957 21.125 118.438 21.125C118.985 21.125 119.419 21.009 119.74 20.777C120.065 20.5417 120.227 20.2599 120.227 19.9318C120.227 19.6667 120.135 19.4446 119.949 19.2656C119.763 19.0833 119.478 18.9474 119.094 18.858L117.821 18.5597C117.122 18.3939 116.608 18.1371 116.28 17.7891C115.955 17.4377 115.793 16.9986 115.793 16.4716C115.793 16.0407 115.914 15.6596 116.156 15.3281C116.401 14.9967 116.734 14.7365 117.155 14.5476C117.579 14.3587 118.06 14.2642 118.597 14.2642C119.352 14.2642 119.946 14.4299 120.377 14.7614C120.811 15.0928 121.119 15.5303 121.301 16.0739ZM128.616 16.0739L127.562 16.3722C127.496 16.1965 127.398 16.0258 127.268 15.8601C127.143 15.6911 126.97 15.5518 126.751 15.4425C126.533 15.3331 126.253 15.2784 125.911 15.2784C125.444 15.2784 125.054 15.3861 124.743 15.6016C124.435 15.8137 124.281 16.0838 124.281 16.4119C124.281 16.7036 124.387 16.9339 124.599 17.103C124.811 17.272 125.142 17.4129 125.593 17.5256L126.727 17.804C127.409 17.9697 127.918 18.2232 128.253 18.5646C128.588 18.9027 128.755 19.3385 128.755 19.8722C128.755 20.3097 128.629 20.7008 128.377 21.0455C128.129 21.3902 127.781 21.6619 127.333 21.8608C126.886 22.0597 126.365 22.1591 125.772 22.1591C124.993 22.1591 124.348 21.9901 123.838 21.652C123.328 21.3139 123.004 20.8201 122.869 20.1705L123.982 19.892C124.088 20.303 124.289 20.6113 124.584 20.8168C124.882 21.0223 125.272 21.125 125.752 21.125C126.299 21.125 126.733 21.009 127.055 20.777C127.379 20.5417 127.542 20.2599 127.542 19.9318C127.542 19.6667 127.449 19.4446 127.263 19.2656C127.078 19.0833 126.793 18.9474 126.408 18.858L125.136 18.5597C124.436 18.3939 123.923 18.1371 123.594 17.7891C123.27 17.4377 123.107 16.9986 123.107 16.4716C123.107 16.0407 123.228 15.6596 123.47 15.3281C123.715 14.9967 124.049 14.7365 124.469 14.5476C124.894 14.3587 125.374 14.2642 125.911 14.2642C126.667 14.2642 127.26 14.4299 127.691 14.7614C128.125 15.0928 128.433 15.5303 128.616 16.0739Z" fill="black"/>
</g>
<defs>
<filter id="filter0_b_115_1816" x="-4" y="-4" width="146" height="41" filterUnits="userSpaceOnUse" color-interpolation-filters="sRGB">
<feFlood flood-opacity="0" result="BackgroundImageFix"/>
<feGaussianBlur in="BackgroundImageFix" stdDeviation="2"/>
<feComposite in2="SourceAlpha" operator="in" result="effect1_backgroundBlur_115_1816"/>
<feBlend mode="normal" in="SourceGraphic" in2="effect1_backgroundBlur_115_1816" result="shape"/>
</filter>
</defs>
</svg>
